<svg xmlns="http://www.w3.org/2000/svg" viewBox="0 0 133.36 99.21"><defs><style>.cls-1{fill:none;stroke:#fec935;stroke-miterlimit:10;stroke-width:7px;}</style></defs><g id="Слой_2" data-name="Слой 2"><g id="Слой_10" data-name="Слой 10"><path class="cls-1" d="M5.82,41.71v48a13.73,13.73,0,0,0,9,6h108a6.3,6.3,0,0,0,4-2c1.61-1.89,1.82-5.11,2-5.08s0,.08,0,.08,0-14.84,0-18c0-5.34.23-43.43,1-59,.07-1.48.27-5.11-2-7-1.82-1.52-4.46-1.28-6-1l-114,1a5,5,0,0,0-4,3,5.12,5.12,0,0,0,2,6l57,53a13.25,13.25,0,0,0,14,0l53-50"/></g></g></svg>